<svg xmlns="http://www.w3.org/2000/svg" viewBox="0 0 289.21 205.91"><defs><style>.cls-1{fill:#f2edec;}.cls-2{fill:#010101;}</style></defs><g id="Layer_2" data-name="Layer 2"><g id="Layer_1-2" data-name="Layer 1"><polygon class="cls-1" points="0 205.75 93.61 0 236.69 203.82 58.33 205.91 111.5 85.39 102.65 71.7 39.31 205.75 0 205.75"/><polygon class="cls-1" points="136.47 53.65 157.42 13.37 289.21 203.17 244.6 203.17 136.47 53.65"/><polygon class="cls-2" points="111.56 34.21 40.33 192.46 12.44 192.14 95.42 10.36 111.56 34.21"/><polygon class="cls-2" points="105.05 58.33 200.59 192.38 224.64 192.38 113.75 38.02 105.05 58.33"/><polygon class="cls-2" points="140.18 52.25 157.82 17.72 277.13 191.74 240.26 191.74 140.18 52.25"/><polygon class="cls-2" points="75.41 192.38 185.98 192.38 120.2 93.45 75.41 192.38"/></g></g></svg>